# xmcd
#
# Track frame offsets:
#	150
#	21699
#	34031
#	52892
#	71456
#	92142
#	118904
#	134264
#	144876
#	164780
#	179854
#	201905
#	226399
#	239201
#	258504
#	274324
#
# Disc length: 3840 seconds
#
# Revision: 1
# Processed by: cddbd v1.5.2PL0 Copyright (c) Steve Scherf et al.
# Submitted via: audiograbber 1.83.01
#
DISCID=000efe10
DTITLE=Andy Fairweather-Low and The Low Riders - Live From The New Theatre, Cardi
DTITLE=ff
DYEAR=2015
DGENRE=Blues
TTITLE0=Reggae Tune
TTITLE1=Natural Sinner
TTITLE2=Hymn 4 My Soul
TTITLE3=Dance On #
TTITLE4=Life Ain't No Competition
TTITLE5=Baby What You Want Me To Do
TTITLE6=I'll Get You
TTITLE7=Lay My Burden Down
TTITLE8=Will The Circle Be Unbroken
TTITLE9=When Things Go Wrong
TTITLE10=I Don't Need
TTITLE11=So Glad You're Mine
TTITLE12=Lightnin's Boogie
TTITLE13=Wide Eyed and Legless
TTITLE14=If I Ever Get Lucky
TTITLE15=Petite Fleur
EXTD=
EXTT0=
EXTT1=
EXTT2=
EXTT3=
EXTT4=
EXTT5=
EXTT6=
EXTT7=
EXTT8=
EXTT9=
EXTT10=
EXTT11=
EXTT12=
EXTT13=
EXTT14=
EXTT15=
PLAYORDER=
